<svg version="1.2" xmlns="http://www.w3.org/2000/svg" viewBox="0 0 64 109" width="64" height="109">
	<title>Vector Smart Object</title>
	<style>
		.s0 { fill: #000000 } 
		.s1 { fill: #ff63be } 
		.s2 { fill: #ffffff } 
		.s3 { fill: #ffcc38 } 
		.s4 { fill: #00d7ff } 
		.s5 { fill: #ffd01f } 
	</style>
	<g id="Isolation Mode">
		<g id="&lt;Group&gt;">
			<g id="&lt;Group&gt;">
				<g id="&lt;Group&gt;">
					<path id="&lt;Path&gt;" class="s0" d="m34.7 98.4l-1.2 1.4-12 0.2c0.3-1.5 1.7-2.5 3.2-2.3l1.5 0.1c2.7 0 4.4-2.1 4.4-2.1z"/>
				</g>
				<g id="&lt;Group&gt;">
					<path id="&lt;Path&gt;" class="s0" d="m59.7 97.4l-1.2 1.4-12 0.2c0.3-1.5 1.7-2.5 3.2-2.3l1.5 0.1c2.7 0 4.4-2.1 4.4-2.1z"/>
				</g>
			</g>
			<g id="&lt;Group&gt;">
				<g id="&lt;Group&gt;">
					<g id="&lt;Group&gt;">
						<path id="&lt;Path&gt;" class="s0" d="m16.1 33.5h0.2c2.4 0 4.4-2 4.4-4.4v-9.5h-9v9.5c0 2.4 2 4.4 4.4 4.4z"/>
						<path id="&lt;Path&gt;" class="s1" d="m6.7 16.6c-1.4-2.3-1-6.2 1.5-8.7 2.4-2.4 6.1-3 9.1-1.4l0.5 0.2c2 1 3.4 2.9 4 5l1.4 7 3.1 1.1-0.9 8.6-2.9-2.6-4.7-4-2.9 1.5c-1.9 1.1-4.2 0.5-5.3-1.4l-0.9-1.5z"/>
						<path id="&lt;Path&gt;" class="s0" d="m5.6 14.3l-0.3-0.1c-1.1-4.4 1.5-8.9 5.9-10.2 5-1.5 10.1 1.7 11 6.8 0.3 1.7 0.6 3.9 0.6 6.2l-5.8-5-0.5 0.3c-3.3 1.9-7.1 2.6-10.9 2z"/>
						<path id="&lt;Path&gt;" class="s2" d="m12.3 20.1c0.5 0.8 1.5 1 2.3 0.6 0.8-0.5 1.1-1.6 0.6-2.4"/>
						<path id="&lt;Path&gt;" class="s3" d="m15.4 40l1-10.7c0.2-0.8 0.6-1.6 1.2-2.2l2.8-3.1 2.1 1.8 3.8-6 7.4-2.8c0 0 12.5 17.2 14.1 27.3l0.4 2.6-17.2 3.2-5.9-9.9-3.1-2.7-1.2 7.4c-0.3 2.1-2.1 3.6-4.2 3.5-1.6 0-3-0.9-3.7-2.4l-7.2-14.9 4.1-1.9z"/>
						<path id="&lt;Path&gt;" class="s4" d="m54.2 97.2l-11.4-36.3c0 0-10.1-6.4-11.5-10l-0.3-0.8 17.2-3.2 2.3 4.1c1.8 2.6 2.8 5.6 2.9 8.8l0.4 11.6 1.7 4.5c1.5 3.8 3.1 11.4 3.3 15.5l0.4 5.8z"/>
						<path id="&lt;Path&gt;" class="s4" d="m34.5 95.1l-0.3 2.1h-5.4l-2.3-21.5c-0.2-1.3 0-2.7 0.4-3.9l4.1-21.7 7.5-1.4 4.3 12.2-9 14c0 0 1.6 13.2 0.7 20.2z"/>
						<path id="&lt;Path&gt;" class="s1" d="m16.6 14.5c0.5 0.9 1.7 1.2 2.6 0.7 1-0.6 1.3-1.7 0.7-2.7-0.5-0.9-1.7-1.2-2.6-0.6-0.9 0.5-1.2 1.7-0.7 2.6z"/>
					</g>
					<path id="&lt;Path&gt;" class="s5" d="m36.6 28.1l2.9 15.8-11.5 14.5-3.6-2.4 6.4-14.4 0.1-17.3z"/>
					<path id="&lt;Path&gt;" class="s1" d="m5.7 31.1c-0.8-0.4-1.5-1.1-2-1.8l-0.7-1.1c-0.4-0.8-0.2-1.7 0.4-2.3l2-1.8-1.5-2.8c-0.2-0.5 0-1 0.4-1.1 0.4-0.1 0.7 0 0.9 0.2l2.4 3.2 0.3 0.2q0.7 0.8 1.1 1.7 0.6 1.2 0.7 2.4l0.1 1.3z"/>
				</g>
				<g id="&lt;Group&gt;">
					<g id="&lt;Group&gt;">
						<path id="&lt;Path&gt;" class="s1" d="m19.7 62.3c-0.4-0.2-0.5-0.7-0.3-1.1l1.8-3.1 2-0.2-2.4 4.1c-0.2 0.4-0.7 0.6-1.1 0.3z"/>
						<path id="&lt;Path&gt;" class="s1" d="m20.8 63.8c-0.4-0.2-0.5-0.7-0.3-1.1l2.7-4.8 1.4 0.8-2.7 4.8c-0.2 0.4-0.7 0.6-1.1 0.3z"/>
						<path id="&lt;Path&gt;" class="s1" d="m22.6 64c-0.4-0.3-0.6-0.8-0.3-1.2l2.3-4.1 1.4 0.8-2.3 4.1c-0.2 0.4-0.7 0.6-1.1 0.4z"/>
						<path id="&lt;Path&gt;" class="s1" d="m25.1 62.8c-0.4-0.2-0.5-0.7-0.3-1.1l1.2-2.2 1.4 0.8-1.2 2.2c-0.2 0.4-0.7 0.5-1.1 0.3z"/>
					</g>
					<path id="&lt;Path&gt;" class="s1" d="m27 61.1l0.8-1.4 0.1-1.5-3.7-2.2h-0.1c-1.3 0.3-2.4 1.2-3.1 2.5l-0.1-0.1z"/>
				</g>
			</g>
		</g>
	</g>
</svg>