<svg version="1.2" xmlns="http://www.w3.org/2000/svg" viewBox="0 0 82 82">
	<title>Vector Smart Object</title>
	<style>
		.s0 { fill: #000000 } 
		.s1 { fill: #ff63be } 
		.s2 { fill: #ffffff } 
		.s3 { fill: #00d7ff } 
		.s4 { fill: #ffd01f } 
	</style>
	<g id="Isolation Mode">
		<g id="&lt;Group&gt;">
			<path id="&lt;Path&gt;" class="s0" d="m58.2 36.8c-1.5-4.6-3.5-6.6-7.3-6.8-1.7-0.1-15.7-0.1-17.4 0-3.8 0.2-5.5 2.6-6.9 7.3l-3.2 12.9c-0.2 1.4 0.2 2.9 1.2 4l4.3 4.8 2-17 3.7 20.3h16.7l2.7-20.3 2.7 16.9 4.2-4.8c1-1.1 1.4-2.5 1.2-4z"/>
			<path id="&lt;Path&gt;" class="s1" d="m31.1 15.4c0-3 2.6-6.5 6.4-7.5 3.7-1 7.5 0.6 9.5 3.8l0.4 0.5c1.3 2.1 1.6 4.7 0.9 7.1l-2.5 6.2v4.4l-3.6 2.7-3.6-2.7-0.1-4.8h-3.3c-2.3 0-4.2-1.9-4.2-4.3v-1.9z"/>
			<path id="&lt;Path&gt;" class="s2" d="m34.6 20.6c0 1 0.8 1.8 1.9 1.8 1 0 1.9-0.8 1.9-1.8"/>
			<path id="&lt;Path&gt;" class="s3" d="m48.2 34.2c0 0 4-5.2 1.4-16v-0.1c1.7-5.1-0.8-10.8-5.9-12.4q-0.4-0.2-0.7-0.2c-5-1.3-10.1 1.1-11.8 6.1-0.4 1.2-0.4 1.9-0.4 1.9l6.1 4.5c1.5 1 3.5 0.8 4.6-0.6l1.2-1.5 3.6 16.9c0.3 0.8 1.1 1.3 1.9 1.4z"/>
			<path id="&lt;Path&gt;" class="s1" d="m41.9 17.7c0 1.2 0.9 2.1 2.1 2.1 1.2 0 2.2-0.9 2.2-2.1 0-1.2-1-2.2-2.2-2.2-1.2 0-2.1 1-2.1 2.2z"/>
			<path id="&lt;Path&gt;" class="s1" d="m68.3 62.2c-1.1-1.8-3.3-2.4-5.4-1.9l-9.4 2.5h-21.6l-9.4-2.5c-2.1-0.5-4.3 0.2-5.4 2.1-1.6 2.6-0.5 6.1 2.3 7.3l16.7 5.3h17.8l12.1-5.3c2.8-1.2 3.9-4.8 2.3-7.5z"/>
			<path id="&lt;Path&gt;" class="s0" d="m48.2 73.4l1.3 1.4 12 0.1c-0.4-1.5-1.8-2.5-3.3-2.3l-1.5 0.2c-2.6 0-4.4-2.1-4.4-2.1z"/>
			<path id="&lt;Path&gt;" class="s0" d="m29.7 72.7q-0.5 0.1-1 0.1l-1.5-0.2c-1.5-0.2-2.9 0.8-3.3 2.3l12.2-0.1z"/>
			<g id="&lt;Group&gt;">
				<path id="&lt;Path&gt;" class="s2" d="m54.1 68.3h-22.8c-1.1 0-2.1-0.9-2.2-2l-1.5-14.2c-0.1-1.3 0.9-2.5 2.2-2.5h25.8c1.3 0 2.3 1.2 2.2 2.5l-1.5 14.2c-0.1 1.1-1.1 2-2.2 2z"/>
				<path id="&lt;Path&gt;" class="s4" d="m44.6 58.9c0 1.1-0.8 2-1.9 2-1.1 0-1.9-0.9-1.9-2 0-1 0.8-1.9 1.9-1.9 1.1 0 1.9 0.9 1.9 1.9z"/>
			</g>
		</g>
		<path id="&lt;Path&gt;" class="s0" d="m50.5 36.1h-4.8v-6.2h4.8z"/>
	</g>
</svg>