<svg version="1.2" xmlns="http://www.w3.org/2000/svg" viewBox="0 0 104 140" width="104" height="140">
	<title>Vector Smart Object</title>
	<style>
		.s0 { fill: #000000 } 
		.s1 { fill: #ffcc38 } 
		.s2 { fill: #ff63be } 
		.s3 { fill: #00d7ff } 
		.s4 { fill: #ffffff } 
	</style>
	<g id="Isolation Mode">
		<g id="&lt;Group&gt;">
			<path id="&lt;Path&gt;" class="s0" d="m69.3 126.4l0.9 3.6-10-0.4c0.3-1.3 1.6-2.1 2.9-1.8l1.3 0.2c0.9 0 1.6-0.9 1.2-1.7z"/>
			<path id="&lt;Path&gt;" class="s0" d="m82.1 81.6l-0.8 3.5 10-0.4c-0.4-1.2-1.7-2-3-1.8l-1.3 0.3c-0.9 0-1.5-0.9-1.2-1.7z"/>
			<path id="&lt;Path&gt;" class="s1" d="m71.6 55.9l-13.4 7.7-6.7 3.6-0.6 0.6-0.9 0.1-6.6 7.1 7.7 22.5q0.2 0.4 0.4 0.8l14.1 28 3.7 0.1c0 0 0.3-4.5-2.9-13.7-3.2-9.2-7.6-16.7-7.6-16.7l-3-17.8 12.8-11.3c0 0 0-2.8 5 5.5 5.1 8.3 7.8 10.9 7.8 10.9l3.2-1.9-12.6-24.7q-0.1-0.4-0.4-0.8z"/>
			<g id="&lt;Group&gt;">
				<g id="&lt;Group&gt;">
					<path id="&lt;Path&gt;" class="s2" d="m72.4 13.5l-5.3 4.9 1.1 1.2 5.3-4.9c0.3-0.3 0.3-0.8 0-1.1-0.3-0.4-0.8-0.4-1.1-0.1z"/>
					<path id="&lt;Path&gt;" class="s2" d="m65.5 17.6l0.3-0.6c2.3-2.2 3.8-5.1 4.3-8.2v-0.3c0.1-0.8 0.9-1.3 1.7-1 0.5 0.1 0.8 0.6 0.9 1.2 0 3.4-1.1 6.7-3.4 9.3l-2.4 2.8z"/>
				</g>
				<g id="&lt;Group&gt;">
					<path id="&lt;Path&gt;" class="s2" d="m22.2 83.7l3.4-6.3 1.4 0.7-3.4 6.4c-0.2 0.3-0.7 0.5-1.1 0.3-0.4-0.2-0.5-0.7-0.3-1.1z"/>
					<path id="&lt;Path&gt;" class="s2" d="m24.4 76l-0.5 0.4c-1.5 2.8-4 5-6.9 6.2l-0.3 0.1c-0.7 0.3-1 1.2-0.6 1.9 0.3 0.4 0.9 0.7 1.4 0.5 3.3-0.7 6.3-2.7 8.2-5.5l2.2-3.1z"/>
				</g>
				<path id="&lt;Path&gt;" class="s3" d="m65.7 17l-24.2 22.8c0 0-13.1 9.9-13.1 9.9l-4.5 26.6 3.2 1.6 5.4-22.4 10.4 19.7 18.9-12.9-11.1-21.3 17.3-21.4z"/>
				<path id="&lt;Path&gt;" class="s2" d="m41.7 22.8c-1.2-2.7-5.1-4.7-9-4-3.8 0.6-6.7 3.7-7.1 7.5l-0.1 0.6c-0.3 2.5 0.5 5 2.2 6.8l5.5 5.7 1.4 3.4 5.1 1.5 1.8-4.5-1.8-3.9 3-1.3c2.1-1.1 3-3.6 2-5.7v-0.1l-1.4-2.8z"/>
				<path id="&lt;Path&gt;" class="s0" d="m42.1 60.8c1.5-0.7 2.1-2.4 1.4-3.8l-13-27.2 10.5-8.8c0 0-0.3-0.5-1.2-1.5-3.5-3.5-8.8-3.5-12.5-0.4-3.5 2.8-4.4 7.6-2.6 11.4 0.2 0.3 9.7 20.5 13.7 28.9 0.6 1.5 2.3 2.1 3.7 1.4z"/>
				<path id="&lt;Path&gt;" class="s4" d="m41.3 30.1c0.4 1 0 2.1-0.9 2.6-1 0.4-2.1 0-2.6-0.9"/>
			</g>
			<path id="&lt;Path&gt;" class="s2" d="m33.6 30.4c0.6 1.1 0.1 2.5-1 3-1.2 0.5-2.5 0-3-1.1-0.5-1.1-0.1-2.4 1.1-3 1.1-0.5 2.4 0 2.9 1.1z"/>
		</g>
	</g>
</svg>