<svg version="1.2" xmlns="http://www.w3.org/2000/svg" viewBox="0 0 72 104" width="72" height="104">
	<title>Vector Smart Object</title>
	<style>
		.s0 { fill: #ffd01f } 
		.s1 { fill: #00d7ff } 
		.s2 { fill: #ff63be } 
		.s3 { fill: #000000 } 
		.s4 { fill: #ffffff } 
	</style>
	<g id="Isolation Mode">
		<g id="&lt;Group&gt;">
			<path id="&lt;Path&gt;" class="s0" d="m26 68.8v16.1c0 0.9 0.7 1.7 1.6 1.9 1.1 0.2 2.1-0.7 2.1-1.8v-4.7c0-1 0.9-1.8 1.9-1.8 0.9 0 1.8 0.6 1.8 1.4v15.6c0 1 0.7 1.8 1.6 2 1.2 0.2 2.2-0.7 2.2-1.9l-0.1-12.1c0-1.1 0.9-1.9 2-1.9 1 0.1 1.8 0.9 1.8 1.9v3.7c0 0.9 0.6 1.8 1.5 1.9 1.2 0.2 2.2-0.7 2.2-1.8v-21.7z"/>
			<path id="&lt;Path&gt;" class="s1" d="m26.5 22.3h9.4 9.3l5.1-10.7c1.2-2.6-0.8-5.4-3.6-5.1q-0.9 0-1.7 0.6l-9.1 6.2-9.2-6.2q-0.7-0.6-1.6-0.6c-2.8-0.3-4.8 2.5-3.7 5.1z"/>
			<g id="&lt;Group&gt;">
				<path id="&lt;Path&gt;" class="s2" d="m5.5 72.8l4.8-5.3-1.2-1-4.8 5.2c-0.3 0.4-0.3 0.9 0.1 1.2 0.3 0.3 0.8 0.2 1.1-0.1z"/>
				<path id="&lt;Path&gt;" class="s2" d="m12 68.2l-0.3 0.6c-2.1 2.4-3.3 5.4-3.5 8.5v0.3c-0.1 0.8-0.8 1.3-1.6 1.1-0.5-0.1-0.9-0.5-1-1.1-0.3-3.3 0.6-6.7 2.6-9.5l2.2-3z"/>
			</g>
			<g id="&lt;Group&gt;">
				<path id="&lt;Path&gt;" class="s2" d="m67.2 72.8l-4.8-5.3 1.1-1 4.9 5.2c0.3 0.4 0.2 0.9-0.1 1.2-0.3 0.3-0.8 0.2-1.1-0.1z"/>
				<path id="&lt;Path&gt;" class="s2" d="m60.7 68.2l0.2 0.6c2.2 2.4 3.4 5.4 3.6 8.5v0.3c0 0.8 0.8 1.3 1.6 1.1 0.5-0.1 0.9-0.5 0.9-1.1 0.4-3.3-0.5-6.7-2.5-9.5l-2.2-3z"/>
				<path id="&lt;Path&gt;" class="s3" d="m63.3 66.4l-16.1-21.7-2-22.4-1.2-0.4c-5.2-1.5-10.8-1.5-16 0l-1.5 0.4-1.2 22.6-15.9 21.5 2.5 2.4 12.1-12.8c3.2-3.3 7.7-5.2 12.3-5.3 4.7 0 9.1 1.9 12.4 5.3l12.1 12.7z"/>
			</g>
			<path id="&lt;Path&gt;" class="s2" d="m25.5 65.7c-0.1 2.9 2.5 6.3 6.2 7.3 3.6 1 7.4-0.5 9.3-3.7l0.4-0.5c1.2-2.1 1.6-4.6 0.9-6.9l-2.5-6v-4.4l-3.5-2.6-3.5 2.6-0.1 4.7h-3.2c-2.3 0-4.1 1.9-4.1 4.2v1.9z"/>
			<path id="&lt;Path&gt;" class="s4" d="m28.9 60.7c0-1.1 0.8-1.9 1.8-1.9 1 0 1.9 0.8 1.9 1.9"/>
			<path id="&lt;Path&gt;" class="s0" d="m37.5 64.9l-12.4 2.7c0 0 0 0.6 0.5 1.8 1.6 4.9 6.6 7.2 11.4 6 4.5-1.1 7.6-5.2 7.6-9.3 0-4.2-3.8-7.8-3.8-7.8z"/>
			<path id="&lt;Path&gt;" class="s2" d="m36 63.5c0-1.2 0.9-2.1 2.1-2.1 1.1 0 2.1 0.9 2.1 2.1 0 1.1-1 2.1-2.1 2.1-1.2 0-2.1-1-2.1-2.1z"/>
		</g>
	</g>
</svg>