<svg version="1.2" xmlns="http://www.w3.org/2000/svg" viewBox="0 0 76 104" width="76" height="104">
	<title>Vector Smart Object</title>
	<style>
		.s0 { fill: #000000 } 
		.s1 { fill: #ffd01f } 
		.s2 { fill: #00d7ff } 
		.s3 { fill: #ffffff } 
	</style>
	<g id="Isolation Mode">
		<g id="&lt;Group&gt;">
			<path id="&lt;Path&gt;" class="s0" d="m27.5 24h9.3 9.4l5.1-10.8c1.2-2.5-0.9-5.4-3.6-5.1q-0.9 0.1-1.7 0.6l-9.2 6.2-9.1-6.2q-0.8-0.5-1.7-0.6c-2.8-0.3-4.8 2.6-3.6 5.1z"/>
			<g id="&lt;Group&gt;">
				<path id="&lt;Path&gt;" class="s1" d="m6.4 74.4l4.9-5.2-1.2-1.1-4.8 5.3c-0.3 0.3-0.3 0.8 0 1.1 0.3 0.3 0.8 0.3 1.1-0.1z"/>
				<path id="&lt;Path&gt;" class="s1" d="m12.9 69.8l-0.2 0.6c-2.1 2.4-3.4 5.4-3.6 8.6v0.2c0 0.8-0.8 1.3-1.5 1.2-0.6-0.2-0.9-0.6-1-1.1-0.4-3.4 0.5-6.8 2.5-9.5l2.2-3.1z"/>
			</g>
			<g id="&lt;Group&gt;">
				<path id="&lt;Path&gt;" class="s1" d="m68.2 74.4l-4.9-5.2 1.2-1.1 4.8 5.3c0.3 0.3 0.3 0.8 0 1.1-0.4 0.3-0.9 0.3-1.1-0.1z"/>
				<path id="&lt;Path&gt;" class="s1" d="m61.6 69.8l0.3 0.6c2.1 2.4 3.4 5.4 3.6 8.6v0.2c0 0.8 0.8 1.3 1.5 1.2 0.5-0.2 0.9-0.6 1-1.1 0.4-3.4-0.5-6.8-2.5-9.5l-2.2-3.1z"/>
				<path id="&lt;Path&gt;" class="s2" d="m64.3 68l-16.1-21.6-2-22.4-1.3-0.4c-5.2-1.6-10.7-1.6-15.9-0.1l-1.5 0.5-1.2 22.6-16 21.4 2.5 2.4 12.2-12.7c3.2-3.4 7.6-5.3 12.3-5.3 4.6 0 9.1 1.9 12.3 5.2l12.2 12.7z"/>
			</g>
			<g id="&lt;Group&gt;">
				<path id="&lt;Path&gt;" class="s0" d="m47.7 70.4v16.1c0 0.9-0.7 1.8-1.6 1.9-1.1 0.2-2.1-0.7-2.1-1.8v-4.6c0-1.1-0.9-1.9-1.9-1.9-0.9 0-1.9 0.6-1.9 1.4v15.7c0 0.9-0.6 1.7-1.5 1.9-1.2 0.2-2.2-0.7-2.2-1.8l0.1-12.1c0-1.1-0.9-2-2-1.9-1 0-1.8 0.8-1.8 1.8v3.7c0 0.9-0.6 1.8-1.5 1.9-1.2 0.2-2.2-0.7-2.2-1.8v-21.7z"/>
				<path id="&lt;Path&gt;" class="s1" d="m48.2 67.4c0 2.8-2.5 6.2-6.2 7.2-3.6 1-7.4-0.5-9.3-3.7l-0.4-0.5c-1.2-2-1.6-4.5-0.9-6.8l2.5-6.1v-4.3l3.4-2.6 3.6 2.6 0.1 4.6h3.2c2.3 0.1 4.1 1.9 4.1 4.2v1.9z"/>
				<path id="&lt;Path&gt;" class="s3" d="m44.8 62.3c0-1-0.8-1.9-1.8-1.9-1.1 0-1.9 0.9-1.9 1.9"/>
				<path id="&lt;Path&gt;" class="s0" d="m36.2 66.5l12.3 2.7c0 0 0 0.6-0.4 1.9-1.7 4.8-6.6 7.1-11.5 5.9-4.4-1.1-7.5-5.2-7.5-9.3 0-4.2 3.8-7.8 3.8-7.8z"/>
				<path id="&lt;Path&gt;" class="s1" d="m37.7 65.1c0-1.2-0.9-2.1-2.1-2.1-1.2 0-2.1 0.9-2.1 2.1 0 1.2 0.9 2.1 2.1 2.1 1.2 0 2.1-0.9 2.1-2.1z"/>
			</g>
		</g>
	</g>
</svg>